<svg xmlns="http://www.w3.org/2000/svg" xmlns:xlink="http://www.w3.org/1999/xlink" version="1.1" data-diagram-type="SEQUENCE" style="width:1265px;height:1472px;background:#FFFFFF;" width="1265px" height="1472px" viewBox="0 0 1265 1472" zoomAndPan="magnify" preserveAspectRatio="none" contentStyleType="text/css"><?plantuml 1.2026.7?><defs/><g font-family="sans-serif" lengthAdjust="spacing"><g class="title" data-source-line="1"><text x="439.535" y="27.995" fill="#000" font-size="14" textLength="384.248" font-weight="700">ecst-go: поллинг, воркеры партиций, ребаланс</text></g><rect x="54.002" y="324.82" width="1122.981" height="325.594" fill="none" style="stroke:#000;stroke-width:1.5;"/><g><title>poll loop</title><rect x="66.502" y="94.891" width="8" height="1366.109" fill="#000" fill-opacity="0"/><line x1="70.002" y1="94.891" x2="70.002" y2="1461" style="stroke:#181818;stroke-width:0.5;stroke-dasharray:5,5;"/></g><g><title>kgo.Client</title><rect x="359.879" y="94.891" width="8" height="1366.109" fill="#000" fill-opacity="0"/><line x1="363.379" y1="94.891" x2="363.379" y2="1461" style="stroke:#181818;stroke-width:0.5;stroke-dasharray:5,5;"/></g><g><title>worker p0</title><rect x="622.031" y="94.891" width="8" height="1366.109" fill="#000" fill-opacity="0"/><line x1="625.531" y1="94.891" x2="625.531" y2="1461" style="stroke:#181818;stroke-width:0.5;stroke-dasharray:5,5;"/></g><g><title>worker p1</title><rect x="920.693" y="94.891" width="8" height="1366.109" fill="#000" fill-opacity="0"/><line x1="924.193" y1="94.891" x2="924.193" y2="1461" style="stroke:#181818;stroke-width:0.5;stroke-dasharray:5,5;"/></g><g><title>handler</title><rect x="1157.484" y="94.891" width="8" height="1366.109" fill="#000" fill-opacity="0"/><line x1="1160.984" y1="94.891" x2="1160.984" y2="1461" style="stroke:#181818;stroke-width:0.5;stroke-dasharray:5,5;"/></g><g><title>DLQ</title><rect x="1226.019" y="94.891" width="8" height="1366.109" fill="#000" fill-opacity="0"/><line x1="1229.519" y1="94.891" x2="1229.519" y2="1461" style="stroke:#181818;stroke-width:0.5;stroke-dasharray:5,5;"/></g><rect x="10" y="47.297" width="120.005" height="46.594" fill="#E2E2F0" style="stroke:#181818;stroke-width:0.5;" rx="2.5" ry="2.5"/><text x="40.208" y="67.292" fill="#000" font-size="14" textLength="59.589">poll loop</text><text x="17" y="83.589" fill="#000" font-size="14" textLength="106.005">(splitConsume)</text><rect x="321.109" y="63.594" width="84.54" height="30.297" fill="#E2E2F0" style="stroke:#181818;stroke-width:0.5;" rx="2.5" ry="2.5"/><text x="328.109" y="83.589" fill="#000" font-size="14" textLength="70.54">kgo.Client</text><rect x="573.971" y="47.297" width="103.12" height="46.594" fill="#E2E2F0" style="stroke:#181818;stroke-width:0.5;" rx="2.5" ry="2.5"/><text x="590.285" y="67.292" fill="#000" font-size="14" textLength="70.492">worker p0</text><text x="580.971" y="83.589" fill="#000" font-size="14" textLength="89.12">(pconsumer)</text><rect x="881.947" y="63.594" width="84.492" height="30.297" fill="#E2E2F0" style="stroke:#181818;stroke-width:0.5;" rx="2.5" ry="2.5"/><text x="888.947" y="83.589" fill="#000" font-size="14" textLength="70.492">worker p1</text><rect x="1127.249" y="63.594" width="67.471" height="30.297" fill="#E2E2F0" style="stroke:#181818;stroke-width:0.5;" rx="2.5" ry="2.5"/><text x="1134.249" y="83.589" fill="#000" font-size="14" textLength="53.471">handler</text><path d="M1209.719,68.594 L1249.319,68.594 C1254.319,68.594 1254.319,81.742 1254.319,81.742 C1254.319,81.742 1254.319,94.891 1249.319,94.891 L1209.719,94.891 C1204.719,94.891 1204.719,81.742 1204.719,81.742 C1204.719,81.742 1204.719,68.594 1209.719,68.594" style="stroke:#181818;stroke-width:0.5;" fill="#E2E2F0"/><path d="M1249.319,68.594 C1244.319,68.594 1244.319,81.742 1244.319,81.742 C1244.319,94.891 1249.319,94.891 1249.319,94.891" style="stroke:#181818;stroke-width:0.5;" fill="none"/><text x="1209.719" y="86.589" fill="#000" font-size="14" textLength="29.6">DLQ</text><rect x="10" y="123.457" width="1244.319" height="3" fill="#EEE" style="stroke:#EEE;stroke-width:1;"/><line x1="10" y1="123.457" x2="1254.319" y2="123.457" style="stroke:#000;stroke-width:1;"/><line x1="10" y1="126.457" x2="1254.319" y2="126.457" style="stroke:#000;stroke-width:1;"/><rect x="540.05" y="112.891" width="184.219" height="23.133" fill="#EEE" style="stroke:#000;stroke-width:2;"/><text x="546.05" y="128.958" fill="#000" font-size="13" textLength="165.693" font-weight="700">Назначение партиций</text><polygon points="81.002,163.156,71.002,167.156,81.002,171.156,77.002,167.156" fill="#181818" style="stroke:#181818;stroke-width:1;stroke-linejoin:miter;stroke-miterlimit:10;"/><line x1="75.002" y1="167.156" x2="362.379" y2="167.156" style="stroke:#181818;stroke-width:1;"/><text x="87.002" y="162.09" fill="#000" font-size="13" font-weight="700">1</text><text x="100.048" y="162.09" fill="#000" font-size="13" textLength="209.911">OnPartitionsAssigned({t: [0,1]})</text><polygon points="351.379,207.422,361.379,211.422,351.379,215.422,355.379,211.422" fill="#181818" style="stroke:#181818;stroke-width:1;stroke-linejoin:miter;stroke-miterlimit:10;"/><line x1="70.002" y1="211.422" x2="357.379" y2="211.422" style="stroke:#181818;stroke-width:1;"/><text x="77.002" y="198.79" fill="#000" font-size="13" font-weight="700">2</text><text x="90.048" y="191.223" fill="#000" font-size="13" textLength="150.198">ResumeFetchPartitions</text><text x="90.048" y="206.356" fill="#000" font-size="13" textLength="180.267">(могли остаться на паузе)</text><polygon points="613.531,236.555,623.531,240.555,613.531,244.555,617.531,240.555" fill="#181818" style="stroke:#181818;stroke-width:1;stroke-linejoin:miter;stroke-miterlimit:10;"/><line x1="70.002" y1="240.555" x2="619.531" y2="240.555" style="stroke:#181818;stroke-width:1;"/><text x="77.002" y="235.489" fill="#000" font-size="13" font-weight="700">3</text><text x="90.048" y="235.489" fill="#000" font-size="13" textLength="109.434">go consume(ctx)</text><polygon points="912.193,265.688,922.193,269.688,912.193,273.688,916.193,269.688" fill="#181818" style="stroke:#181818;stroke-width:1;stroke-linejoin:miter;stroke-miterlimit:10;"/><line x1="70.002" y1="269.688" x2="918.193" y2="269.688" style="stroke:#181818;stroke-width:1;"/><text x="77.002" y="264.622" fill="#000" font-size="13" font-weight="700">4</text><text x="90.048" y="264.622" fill="#000" font-size="13" textLength="109.434">go consume(ctx)</text><rect x="10" y="298.254" width="1244.319" height="3" fill="#EEE" style="stroke:#EEE;stroke-width:1;"/><line x1="10" y1="298.254" x2="1254.319" y2="298.254" style="stroke:#000;stroke-width:1;"/><line x1="10" y1="301.254" x2="1254.319" y2="301.254" style="stroke:#000;stroke-width:1;"/><rect x="554.037" y="287.688" width="156.245" height="23.133" fill="#EEE" style="stroke:#000;stroke-width:2;"/><text x="560.037" y="303.754" fill="#000" font-size="13" textLength="137.719" font-weight="700">Нормальный цикл</text><path d="M54.002,324.82 L130.626,324.82 L130.626,331.953 L120.626,341.953 L54.002,341.953 L54.002,324.82" style="stroke:#000;stroke-width:1.5;" fill="#EEE"/><rect x="54.002" y="324.82" width="1122.981" height="325.594" fill="none" style="stroke:#000;stroke-width:1.5;"/><text x="69.002" y="337.887" fill="#000" font-size="13" textLength="31.624" font-weight="700">loop</text><text x="145.626" y="337.031" fill="#000" font-size="11" textLength="92.249" font-weight="700">[пока ctx жив]</text><polygon points="351.379,369.086,361.379,373.086,351.379,377.086,355.379,373.086" fill="#181818" style="stroke:#181818;stroke-width:1;stroke-linejoin:miter;stroke-miterlimit:10;"/><line x1="70.002" y1="373.086" x2="357.379" y2="373.086" style="stroke:#181818;stroke-width:1;"/><text x="77.002" y="368.02" fill="#000" font-size="13" font-weight="700">5</text><text x="90.048" y="368.02" fill="#000" font-size="13" textLength="188.056">PollRecords(MaxPollRecords)</text><path d="M75.002,386.086 L75.002,426.086 L248.002,426.086 L248.002,396.086 L238.002,386.086 L75.002,386.086" style="stroke:#181818;stroke-width:0.5;" fill="#FEFFDD"/><path d="M238.002,386.086 L238.002,396.086 L248.002,396.086 L238.002,386.086" style="stroke:#181818;stroke-width:0.5;" fill="#FEFFDD"/><text x="81.002" y="403.153" fill="#000" font-size="13" textLength="149.24">BlockRebalanceOnPoll:</text><text x="81.002" y="418.286" fill="#000" font-size="13" textLength="152.103">ребаланс не начнется</text><polygon points="81.002,448.484,71.002,452.484,81.002,456.484,77.002,452.484" fill="#181818" style="stroke:#181818;stroke-width:1;stroke-linejoin:miter;stroke-miterlimit:10;"/><line x1="75.002" y1="452.484" x2="362.379" y2="452.484" style="stroke:#181818;stroke-width:1;stroke-dasharray:2,2;"/><text x="87.002" y="447.418" fill="#000" font-size="13" font-weight="700">6</text><text x="100.048" y="447.418" fill="#000" font-size="13" textLength="47.83">fetches</text><polygon points="613.531,477.617,623.531,481.617,613.531,485.617,617.531,481.617" fill="#181818" style="stroke:#181818;stroke-width:1;stroke-linejoin:miter;stroke-miterlimit:10;"/><line x1="70.002" y1="481.617" x2="619.531" y2="481.617" style="stroke:#181818;stroke-width:1;"/><text x="77.002" y="476.551" fill="#000" font-size="13" font-weight="700">7</text><text x="90.048" y="476.551" fill="#000" font-size="13" textLength="103.003">recs &lt;- батч p0</text><polygon points="912.193,506.75,922.193,510.75,912.193,514.75,916.193,510.75" fill="#181818" style="stroke:#181818;stroke-width:1;stroke-linejoin:miter;stroke-miterlimit:10;"/><line x1="70.002" y1="510.75" x2="918.193" y2="510.75" style="stroke:#181818;stroke-width:1;"/><text x="77.002" y="505.684" fill="#000" font-size="13" font-weight="700">8</text><text x="90.048" y="505.684" fill="#000" font-size="13" textLength="103.003">recs &lt;- батч p1</text><polygon points="351.379,535.883,361.379,539.883,351.379,543.883,355.379,539.883" fill="#181818" style="stroke:#181818;stroke-width:1;stroke-linejoin:miter;stroke-miterlimit:10;"/><line x1="70.002" y1="539.883" x2="357.379" y2="539.883" style="stroke:#181818;stroke-width:1;"/><text x="77.002" y="534.817" fill="#000" font-size="13" font-weight="700">9</text><text x="90.048" y="534.817" fill="#000" font-size="13" textLength="151.36">AllowRebalance (defer)</text><polygon points="1148.984,565.016,1158.984,569.016,1148.984,573.016,1152.984,569.016" fill="#181818" style="stroke:#181818;stroke-width:1;stroke-linejoin:miter;stroke-miterlimit:10;"/><line x1="625.531" y1="569.016" x2="1154.984" y2="569.016" style="stroke:#181818;stroke-width:1;"/><text x="632.531" y="563.95" fill="#000" font-size="13" textLength="18.091" font-weight="700">10</text><text x="654.622" y="563.95" fill="#000" font-size="13" textLength="233.346">process(rec) по одной, по порядку</text><polygon points="636.531,594.148,626.531,598.148,636.531,602.148,632.531,598.148" fill="#181818" style="stroke:#181818;stroke-width:1;stroke-linejoin:miter;stroke-miterlimit:10;"/><line x1="630.531" y1="598.148" x2="1159.984" y2="598.148" style="stroke:#181818;stroke-width:1;stroke-dasharray:2,2;"/><text x="642.531" y="593.083" fill="#000" font-size="13" textLength="18.091" font-weight="700">11</text><text x="664.622" y="593.083" fill="#000" font-size="13" textLength="15.482">ok</text><polygon points="374.379,638.414,364.379,642.414,374.379,646.414,370.379,642.414" fill="#181818" style="stroke:#181818;stroke-width:1;stroke-linejoin:miter;stroke-miterlimit:10;"/><line x1="368.379" y1="642.414" x2="624.531" y2="642.414" style="stroke:#181818;stroke-width:1;"/><text x="380.379" y="629.782" fill="#000" font-size="13" textLength="18.091" font-weight="700">12</text><text x="402.47" y="622.215" fill="#000" font-size="13" textLength="144.949">CommitRecords(батч)</text><text x="402.47" y="637.348" fill="#000" font-size="13" textLength="216.062">ctx без отмены, CommitTimeout</text><rect x="10" y="684.98" width="1244.319" height="3" fill="#EEE" style="stroke:#EEE;stroke-width:1;"/><line x1="10" y1="684.98" x2="1254.319" y2="684.98" style="stroke:#000;stroke-width:1;"/><line x1="10" y1="687.98" x2="1254.319" y2="687.98" style="stroke:#000;stroke-width:1;"/><rect x="572.207" y="674.414" width="119.904" height="23.133" fill="#EEE" style="stroke:#000;stroke-width:2;"/><text x="578.207" y="690.481" fill="#000" font-size="13" textLength="101.378" font-weight="700">Воркер встал</text><polygon points="1148.984,724.68,1158.984,728.68,1148.984,732.68,1152.984,728.68" fill="#181818" style="stroke:#181818;stroke-width:1;stroke-linejoin:miter;stroke-miterlimit:10;"/><line x1="924.193" y1="728.68" x2="1154.984" y2="728.68" style="stroke:#181818;stroke-width:1;"/><text x="931.193" y="723.614" fill="#000" font-size="13" textLength="18.091" font-weight="700">13</text><text x="953.284" y="723.614" fill="#000" font-size="13" textLength="80.875">process(rec)</text><polygon points="935.193,753.813,925.193,757.813,935.193,761.813,931.193,757.813" fill="#181818" style="stroke:#181818;stroke-width:1;stroke-linejoin:miter;stroke-miterlimit:10;"/><line x1="929.193" y1="757.813" x2="1159.984" y2="757.813" style="stroke:#181818;stroke-width:1;stroke-dasharray:2,2;"/><text x="941.193" y="752.747" fill="#000" font-size="13" textLength="18.091" font-weight="700">14</text><text x="963.284" y="752.747" fill="#000" font-size="13" textLength="18.688">err</text><line x1="924.193" y1="786.945" x2="966.193" y2="786.945" style="stroke:#181818;stroke-width:1;"/><line x1="966.193" y1="786.945" x2="966.193" y2="799.945" style="stroke:#181818;stroke-width:1;"/><line x1="925.193" y1="799.945" x2="966.193" y2="799.945" style="stroke:#181818;stroke-width:1;"/><polygon points="935.193,795.945,925.193,799.945,935.193,803.945,931.193,799.945" fill="#181818" style="stroke:#181818;stroke-width:1;stroke-linejoin:miter;stroke-miterlimit:10;"/><text x="931.193" y="781.879" fill="#000" font-size="13" textLength="18.091" font-weight="700">15</text><text x="953.284" y="781.879" fill="#000" font-size="13" textLength="200.7">ретраи (HandlerMaxAttempts)</text><polygon points="1217.519,825.078,1227.519,829.078,1217.519,833.078,1221.519,829.078" fill="#181818" style="stroke:#181818;stroke-width:1;stroke-linejoin:miter;stroke-miterlimit:10;"/><line x1="924.193" y1="829.078" x2="1223.519" y2="829.078" style="stroke:#181818;stroke-width:1;"/><text x="931.193" y="824.012" fill="#000" font-size="13" textLength="18.091" font-weight="700">16</text><text x="953.284" y="824.012" fill="#000" font-size="13" textLength="32.741">Send</text><polygon points="935.193,854.211,925.193,858.211,935.193,862.211,931.193,858.211" fill="#181818" style="stroke:#181818;stroke-width:1;stroke-linejoin:miter;stroke-miterlimit:10;"/><line x1="929.193" y1="858.211" x2="1228.519" y2="858.211" style="stroke:#181818;stroke-width:1;stroke-dasharray:2,2;"/><text x="941.193" y="853.145" fill="#000" font-size="13" textLength="18.091" font-weight="700">17</text><text x="963.284" y="853.145" fill="#000" font-size="13" textLength="145.399">err (DLQ недоступна)</text><line x1="924.193" y1="902.477" x2="966.193" y2="902.477" style="stroke:#181818;stroke-width:1;"/><line x1="966.193" y1="902.477" x2="966.193" y2="915.477" style="stroke:#181818;stroke-width:1;"/><line x1="925.193" y1="915.477" x2="966.193" y2="915.477" style="stroke:#181818;stroke-width:1;"/><polygon points="935.193,911.477,925.193,915.477,935.193,919.477,931.193,915.477" fill="#181818" style="stroke:#181818;stroke-width:1;stroke-linejoin:miter;stroke-miterlimit:10;"/><text x="931.193" y="889.844" fill="#000" font-size="13" textLength="18.091" font-weight="700">18</text><text x="953.284" y="882.278" fill="#000" font-size="13" textLength="157.403">close(failed), log ERROR</text><text x="953.284" y="897.411" fill="#000" font-size="13" textLength="139.921">батч НЕ коммитится</text><path d="M929.193,928.477 L929.193,983.477 L1246.193,983.477 L1246.193,938.477 L1236.193,928.477 L929.193,928.477" style="stroke:#181818;stroke-width:0.5;" fill="#FEFFDD"/><path d="M1236.193,928.477 L1236.193,938.477 L1246.193,938.477 L1236.193,928.477" style="stroke:#181818;stroke-width:0.5;" fill="#FEFFDD"/><text x="935.193" y="945.543" fill="#000" font-size="13" textLength="296.867">Коммитить дальше нельзя: CommitRecords</text><text x="935.193" y="960.676" fill="#000" font-size="13" textLength="257.474">двигает офсет на максимум из батча</text><text x="935.193" y="975.809" fill="#000" font-size="13" textLength="203.392">и перепрыгнул бы эту запись</text><line x1="70.002" y1="1010.008" x2="112.002" y2="1010.008" style="stroke:#181818;stroke-width:1;"/><line x1="112.002" y1="1010.008" x2="112.002" y2="1023.008" style="stroke:#181818;stroke-width:1;"/><line x1="71.002" y1="1023.008" x2="112.002" y2="1023.008" style="stroke:#181818;stroke-width:1;"/><polygon points="81.002,1019.008,71.002,1023.008,81.002,1027.008,77.002,1023.008" fill="#181818" style="stroke:#181818;stroke-width:1;stroke-linejoin:miter;stroke-miterlimit:10;"/><text x="77.002" y="1004.942" fill="#000" font-size="13" textLength="18.091" font-weight="700">19</text><text x="99.093" y="1004.942" fill="#000" font-size="13" textLength="156.324">dispatch видит &lt;-failed</text><polygon points="351.379,1048.141,361.379,1052.141,351.379,1056.141,355.379,1052.141" fill="#181818" style="stroke:#181818;stroke-width:1;stroke-linejoin:miter;stroke-miterlimit:10;"/><line x1="70.002" y1="1052.141" x2="357.379" y2="1052.141" style="stroke:#181818;stroke-width:1;"/><text x="77.002" y="1047.075" fill="#000" font-size="13" textLength="18.091" font-weight="700">20</text><text x="99.093" y="1047.075" fill="#000" font-size="13" textLength="178.477">PauseFetchPartitions(t: [1])</text><path d="M75.002,1065.141 L75.002,1120.141 L388.002,1120.141 L388.002,1075.141 L378.002,1065.141 L75.002,1065.141" style="stroke:#181818;stroke-width:0.5;" fill="#FEFFDD"/><path d="M378.002,1065.141 L378.002,1075.141 L388.002,1075.141 L378.002,1065.141" style="stroke:#181818;stroke-width:0.5;" fill="#FEFFDD"/><text x="81.002" y="1082.208" fill="#000" font-size="13" textLength="292.417">ERROR "partition paused": сама не поедет -</text><text x="81.002" y="1097.34" fill="#000" font-size="13" textLength="292.43">ребаланс запускает только смена состава</text><text x="81.002" y="1112.473" fill="#000" font-size="13" textLength="222.365">группы, а для брокера мы живы</text><polygon points="613.531,1142.672,623.531,1146.672,613.531,1150.672,617.531,1146.672" fill="#181818" style="stroke:#181818;stroke-width:1;stroke-linejoin:miter;stroke-miterlimit:10;"/><line x1="70.002" y1="1146.672" x2="619.531" y2="1146.672" style="stroke:#181818;stroke-width:1;"/><text x="77.002" y="1141.606" fill="#000" font-size="13" textLength="18.091" font-weight="700">21</text><text x="99.093" y="1141.606" fill="#000" font-size="13" textLength="248.092">p0 читается как ни в чем не бывало</text><rect x="10" y="1175.238" width="1244.319" height="3" fill="#EEE" style="stroke:#EEE;stroke-width:1;"/><line x1="10" y1="1175.238" x2="1254.319" y2="1175.238" style="stroke:#000;stroke-width:1;"/><line x1="10" y1="1178.238" x2="1254.319" y2="1178.238" style="stroke:#000;stroke-width:1;"/><rect x="561.794" y="1164.672" width="140.731" height="23.133" fill="#EEE" style="stroke:#000;stroke-width:2;"/><text x="567.794" y="1180.739" fill="#000" font-size="13" textLength="122.205" font-weight="700">Отзыв партиций</text><polygon points="81.002,1214.938,71.002,1218.938,81.002,1222.938,77.002,1218.938" fill="#181818" style="stroke:#181818;stroke-width:1;stroke-linejoin:miter;stroke-miterlimit:10;"/><line x1="75.002" y1="1218.938" x2="362.379" y2="1218.938" style="stroke:#181818;stroke-width:1;"/><text x="87.002" y="1213.872" fill="#000" font-size="13" textLength="18.091" font-weight="700">22</text><text x="109.093" y="1213.872" fill="#000" font-size="13" textLength="247.286">OnPartitionsRevoked / Lost({t: [0,1]})</text><polygon points="613.531,1244.07,623.531,1248.07,613.531,1252.07,617.531,1248.07" fill="#181818" style="stroke:#181818;stroke-width:1;stroke-linejoin:miter;stroke-miterlimit:10;"/><line x1="70.002" y1="1248.07" x2="619.531" y2="1248.07" style="stroke:#181818;stroke-width:1;"/><text x="77.002" y="1243.004" fill="#000" font-size="13" textLength="18.091" font-weight="700">23</text><text x="99.093" y="1243.004" fill="#000" font-size="13" textLength="68.828">close(quit)</text><polygon points="912.193,1273.203,922.193,1277.203,912.193,1281.203,916.193,1277.203" fill="#181818" style="stroke:#181818;stroke-width:1;stroke-linejoin:miter;stroke-miterlimit:10;"/><line x1="70.002" y1="1277.203" x2="918.193" y2="1277.203" style="stroke:#181818;stroke-width:1;"/><text x="77.002" y="1272.137" fill="#000" font-size="13" textLength="18.091" font-weight="700">24</text><text x="99.093" y="1272.137" fill="#000" font-size="13" textLength="68.828">close(quit)</text><line x1="625.531" y1="1306.336" x2="667.531" y2="1306.336" style="stroke:#181818;stroke-width:1;"/><line x1="667.531" y1="1306.336" x2="667.531" y2="1319.336" style="stroke:#181818;stroke-width:1;"/><line x1="626.531" y1="1319.336" x2="667.531" y2="1319.336" style="stroke:#181818;stroke-width:1;"/><polygon points="636.531,1315.336,626.531,1319.336,636.531,1323.336,632.531,1319.336" fill="#181818" style="stroke:#181818;stroke-width:1;stroke-linejoin:miter;stroke-miterlimit:10;"/><text x="632.531" y="1301.27" fill="#000" font-size="13" textLength="18.091" font-weight="700">25</text><text x="654.622" y="1301.27" fill="#000" font-size="13" textLength="262.571">бросает текущий батч недоделанным</text><polygon points="81.002,1344.469,71.002,1348.469,81.002,1352.469,77.002,1348.469" fill="#181818" style="stroke:#181818;stroke-width:1;stroke-linejoin:miter;stroke-miterlimit:10;"/><line x1="75.002" y1="1348.469" x2="624.531" y2="1348.469" style="stroke:#181818;stroke-width:1;stroke-dasharray:2,2;"/><text x="87.002" y="1343.403" fill="#000" font-size="13" textLength="18.091" font-weight="700">26</text><text x="109.093" y="1343.403" fill="#000" font-size="13" textLength="76.07">close(done)</text><polygon points="81.002,1373.602,71.002,1377.602,81.002,1381.602,77.002,1377.602" fill="#181818" style="stroke:#181818;stroke-width:1;stroke-linejoin:miter;stroke-miterlimit:10;"/><line x1="75.002" y1="1377.602" x2="923.193" y2="1377.602" style="stroke:#181818;stroke-width:1;stroke-dasharray:2,2;"/><text x="87.002" y="1372.536" fill="#000" font-size="13" textLength="18.091" font-weight="700">27</text><text x="109.093" y="1372.536" fill="#000" font-size="13" textLength="76.07">close(done)</text><line x1="70.002" y1="1406.734" x2="112.002" y2="1406.734" style="stroke:#181818;stroke-width:1;"/><line x1="112.002" y1="1406.734" x2="112.002" y2="1419.734" style="stroke:#181818;stroke-width:1;"/><line x1="71.002" y1="1419.734" x2="112.002" y2="1419.734" style="stroke:#181818;stroke-width:1;"/><polygon points="81.002,1415.734,71.002,1419.734,81.002,1423.734,77.002,1419.734" fill="#181818" style="stroke:#181818;stroke-width:1;stroke-linejoin:miter;stroke-miterlimit:10;"/><text x="77.002" y="1401.668" fill="#000" font-size="13" textLength="18.091" font-weight="700">28</text><text x="99.093" y="1401.668" fill="#000" font-size="13" textLength="148.783">wg.Wait() - ждем всех</text><path d="M259.876,1390.602 L259.876,1445.602 L523.876,1445.602 L523.876,1400.602 L513.876,1390.602 L259.876,1390.602" style="stroke:#181818;stroke-width:0.5;" fill="#FEFFDD"/><path d="M513.876,1390.602 L513.876,1400.602 L523.876,1400.602 L513.876,1390.602" style="stroke:#181818;stroke-width:0.5;" fill="#FEFFDD"/><text x="265.876" y="1407.668" fill="#000" font-size="13" textLength="223.787">Брошенный батч не закоммичен</text><text x="265.876" y="1422.801" fill="#000" font-size="13" textLength="243.534">и перечитается новым владельцем</text><text x="265.876" y="1437.934" fill="#000" font-size="13" textLength="95.374">(at-least-once)</text><?plantuml-src bLRDJYD74BxFKvGuZIMymLSK8X4d4OUDbZYHE8Gz39x6Z1XFpywq0r8KYPyakn6iq4RA9LBo35wmOySOymezRvIlgWV_uKkqXsrtLrVNzrCrcCZ4YbGpDzMMtYJxQ2Vs7l-6zi7UhPEzjPFYp8vilpWhhlYuYyM57HQ_8kJVTS9XttwqNLpfseVYt3kAGaM7Mfi3VUe57QEJJlj0PPwN1fc9cb4Q98RMKXt756kTxYT-diQHgUiaxxHLPOs2d7PnkXX_tD8lwd6a4YC1zQNZ4vqTgupI3QHBcovLvdBjRQmEhRdJskBfKP24iShaRCTxqr4THMjVlFn6Dl2_vsrjaVqBM0SWg5ky1Ve7CD5_HWrjRNdrcAgV2HhQf5V9Bhza8fItdUTHAr6X_wFPfEytrcklVwfu4eVuEaSt56FuIfdcqUmQqDan1BfZWGZAdEEzRd5HN6DrGroHg-CIvVLd6VSsaB6bgMJ6RvhJkSFQYiCI9ci_Pd6BQuXx1LG2RcJl6HxhvnmpmiEuH_OVdDvwH0jO-4T3DNKMvlxNmUdSpmf24sqKPL7ho90-V2BhyrWtZnlg88Y3fAb07ROtzvDbjp7aFfLAO0agG0IIClCpwW-PHfLxSuK99HbyJvzMYLFYwbiOQ3wajZAajWnlEuxroRHMyaDr2FFnOtW4GJk8IJFTL7dk8rr5A8DwjeUI9zn4RkEHwIvki3qgBd5xHo18eVfucasUhEjsEp9Fd3xLLjbFH8IF86d0zhY0U7qMRhsyyLtKLhfZF9M4JkBVP-sDNdT-Sk82_OhQlR8efaPbMHabFraRL76614FoTrmZGUvjOrGxDT3Q1QEB4Fqjby3B-NJaymuB2HB4tN3o8yjRcN-f6UjS-OT15Akmieunqg8l6urNZVragXAy-mS1rmGCZD6It9RE6ujsssCrxPzBSTU4zyNrnJldhxwqmA2uMUAUR_Sm98VeoIxZPzf_BixTKlgH-sU4dQ4T0ysOi1XCxMIxd678ulV5t8yyPv7i0R7t2CFGBTup3uIMxY9i21JNBA0qZZTjuzBgOPId0TnEKbIFuS2-Zgl52RCRTFBb0UFpEAgzhdZFcn9r2icOtK_Xb7AAS0tQdwEsCQDzSADm8X8o2LLSVDwsWgMunBrHoHkedmZ948tpYNEH4SjopW6Hi7K7YjWMZ-nhVhE7UpVCrPcC8YQIUUVlbSoZuch6rqB_fni42OQIl9mT90MD60XKkIMPyECI5zJW8W1ZujhdRrmTyER_6_yDzOC-LY5zGYzrRbP-1AG-P_GtdSWiZUlv0pSM9DvH86AKbFPvbXI_IKMpvYWRZ1LoaiXm7qkgMSNkaL0dodNVwfCb_vsqNkm5aV4hL6NsUuwzM-c8N-PinK9-a6hVYT3kwx9GedF9h8VbMxlOBi_Luubwos2u0HXRp_KkL44bkEq7fXgh07_lQ4phojGP_m40?></g></svg>