<svg xmlns="http://www.w3.org/2000/svg" xmlns:xlink="http://www.w3.org/1999/xlink" version="1.1" data-diagram-type="DESCRIPTION" style="width:1138px;height:832px;background:#FFFFFF;" width="1138px" height="832px" viewBox="0 0 1138 832" zoomAndPan="magnify" preserveAspectRatio="none" contentStyleType="text/css"><?plantuml 1.2026.7?><defs/><g font-family="sans-serif" lengthAdjust="spacing"><g class="title" data-source-line="1"><text x="443.621" y="22.995" fill="#000" font-size="14" textLength="244.104" font-weight="700">ecst-go: компоненты и потоки</text></g><!--cluster Write--><g class="cluster" data-qualified-name="Write" id="ent0001" data-source-line="7"><path d="M526.5,43.297 L686.832,43.297 A3.75,3.75 0 0 1 689.332,45.797 L696.332,65.594 L757.5,65.594 A2.5,2.5 0 0 1 760,68.094 L760,281.687 A2.5,2.5 0 0 1 757.5,284.187 L526.5,284.187 A2.5,2.5 0 0 1 524,281.687 L524,45.797 A2.5,2.5 0 0 1 526.5,43.297" style="stroke:#000;stroke-width:1.5;" fill="none"/><line x1="524" y1="65.594" x2="696.332" y2="65.594" style="stroke:#000;stroke-width:1.5;"/><text x="528" y="58.292" fill="#000" font-size="14" textLength="159.332" font-weight="700">Ваш сервис: запись</text></g><!--cluster Out--><g class="cluster" data-qualified-name="Out" id="ent0004" data-source-line="12"><path d="M597.5,356.187 L775.817,356.187 A3.75,3.75 0 0 1 778.317,358.687 L785.317,378.484 L798.5,378.484 A2.5,2.5 0 0 1 801,380.984 L801,639.977 A2.5,2.5 0 0 1 798.5,642.477 L597.5,642.477 A2.5,2.5 0 0 1 595,639.977 L595,358.687 A2.5,2.5 0 0 1 597.5,356.187" style="stroke:#000;stroke-width:1.5;" fill="none"/><line x1="595" y1="378.484" x2="785.317" y2="378.484" style="stroke:#000;stroke-width:1.5;"/><text x="599" y="371.182" fill="#000" font-size="14" textLength="177.317" font-weight="700">ecst.Service — Outbox</text></g><!--cluster K--><g class="cluster" data-qualified-name="K" id="ent0007" data-source-line="17"><path d="M330.82,722.749 C338.288,712.67 348.392,715.368 353.7,725.229 C356.862,715.557 365.47,715.014 371.626,722.009 C379.278,712.708 387.447,712.47 392.827,724.289 C398.479,714.36 404.612,711.692 413.531,720.721 C418.928,710.368 428.396,710.386 433.444,721.052 C439.608,709.787 451.205,709.145 457.759,720.635 C464.588,711.686 470.733,711.87 476.352,721.826 C481.469,711.15 492.876,709.777 499.656,719.968 C505.628,713.181 514.116,713.504 517.829,722.559 C524.912,709.134 532.47,711.113 541.323,720.755 C547.394,713.876 555.059,715.2 559.074,723.207 C564.237,711.973 574.028,713.672 580.01,722.346 C586.596,712.348 595.624,712.457 600.679,723.827 C607.303,714.223 616.172,715.498 621.352,725.36 C640.114,729.539 642.033,740.225 632.92,755.208 C643.549,768.432 640.403,782.776 622.118,785.787 C615.659,793.959 609.183,795.307 603.185,785.306 C597.818,795.607 587.728,797.917 580.977,786.738 C575.144,797.486 567.01,796.371 560.713,787.21 C556.143,796.765 547.157,796.967 540.973,789.032 C534.537,798.229 525.288,799.602 518.531,789.403 C512.341,799.818 503.175,796.575 498.279,788.022 C492.839,797.632 485.899,799.067 478.237,790.467 C470.235,800.448 460.694,801.178 455.042,788.103 C449.804,797.35 442.07,797.721 437.043,787.905 C430.017,797.019 421.134,796.97 414.258,787.719 C407.746,797.749 400.796,798.302 392.874,789.303 C386.86,797.779 378.656,796.323 374.064,787.736 C368.031,797.65 356.379,800.281 350.508,787.566 C342.95,795.054 336.479,796.076 330.425,785.86 C313.643,781.284 306.422,773.41 316.959,756.362 C306.144,739.327 310.316,726.87 330.82,722.749" style="stroke:#181818;stroke-width:1;" fill="none"/><text x="452.428" y="740.472" fill="#000" font-size="14" textLength="45.145" font-weight="700">Kafka</text></g><!--cluster In--><g class="cluster" data-qualified-name="In" id="ent0011" data-source-line="23"><path d="M337.5,356.037 L502.433,356.037 A3.75,3.75 0 0 1 504.933,358.537 L511.933,378.334 L560.5,378.334 A2.5,2.5 0 0 1 563,380.834 L563,631.977 A2.5,2.5 0 0 1 560.5,634.477 L337.5,634.477 A2.5,2.5 0 0 1 335,631.977 L335,358.537 A2.5,2.5 0 0 1 337.5,356.037" style="stroke:#000;stroke-width:1.5;" fill="none"/><line x1="335" y1="378.334" x2="511.933" y2="378.334" style="stroke:#000;stroke-width:1.5;"/><text x="339" y="371.032" fill="#000" font-size="14" textLength="163.933" font-weight="700">ecst.Service — Inbox</text></g><!--cluster Apply--><g class="cluster" data-qualified-name="Apply" id="ent0014" data-source-line="28"><path d="M8.5,531.037 L213.204,531.037 A3.75,3.75 0 0 1 215.704,533.537 L222.704,553.334 L222.5,553.334 A2.5,2.5 0 0 1 225,555.834 L225,814.927 A2.5,2.5 0 0 1 222.5,817.427 L8.5,817.427 A2.5,2.5 0 0 1 6,814.927 L6,533.537 A2.5,2.5 0 0 1 8.5,531.037" style="stroke:#000;stroke-width:1.5;" fill="none"/><line x1="6" y1="553.334" x2="222.704" y2="553.334" style="stroke:#000;stroke-width:1.5;"/><text x="10" y="546.032" fill="#000" font-size="14" textLength="203.704" font-weight="700">Ваш сервис: применение</text></g><!--entity Biz--><g class="entity" data-qualified-name="Write.Biz" id="ent0002" data-source-line="8"><rect x="540.17" y="78.297" width="127.666" height="36.297" fill="#F1F1F1" style="stroke:#181818;stroke-width:0.5;" rx="2.5" ry="2.5"/><text x="550.17" y="101.292" fill="#000" font-size="14" textLength="107.666">Бизнес-логика</text></g><!--entity DB--><g class="entity" data-qualified-name="Write.DB" id="ent0003" data-source-line="9"><path d="M540.29,216.597 C540.29,206.597 616,206.597 616,206.597 C616,206.597 691.711,206.597 691.711,216.597 L691.711,258.191 C691.711,268.191 616,268.191 616,268.191 C616,268.191 540.29,268.191 540.29,258.191 L540.29,216.597" style="stroke:#181818;stroke-width:0.5;" fill="#F1F1F1"/><path d="M540.29,216.597 C540.29,226.597 616,226.597 616,226.597 C616,226.597 691.711,226.597 691.711,216.597" style="stroke:#181818;stroke-width:0.5;" fill="none"/><text x="574.093" y="243.592" fill="#000" font-size="14" textLength="83.815">БД сервиса</text><text x="550.29" y="259.889" fill="#000" font-size="14" textLength="131.421">+ outbox-таблица</text></g><!--entity OW--><g class="entity" data-qualified-name="Out.OW" id="ent0005" data-source-line="13"><rect x="634.35" y="399.187" width="119.306" height="36.297" fill="#F1F1F1" style="stroke:#181818;stroke-width:0.5;" rx="2.5" ry="2.5"/><text x="644.35" y="422.182" fill="#000" font-size="14" textLength="99.306">outboxWorker</text></g><!--entity P1--><g class="entity" data-qualified-name="Out.P1" id="ent0006" data-source-line="14"><rect x="618.96" y="565.887" width="150.074" height="52.594" fill="#F1F1F1" style="stroke:#181818;stroke-width:0.5;" rx="2.5" ry="2.5"/><text x="628.96" y="588.882" fill="#000" font-size="14" textLength="130.074">producer.Producer</text><text x="649.895" y="605.179" fill="#000" font-size="14" textLength="88.204">публикация</text></g><!--entity T1--><g class="entity" data-qualified-name="K.T1" id="ent0008" data-source-line="18"><path d="M553.56,749.477 L608.431,749.477 C613.431,749.477 613.431,762.625 613.431,762.625 C613.431,762.625 613.431,775.774 608.431,775.774 L553.56,775.774 C548.56,775.774 548.56,762.625 548.56,762.625 C548.56,762.625 548.56,749.477 553.56,749.477" style="stroke:#181818;stroke-width:0.5;" fill="#F1F1F1"/><path d="M608.431,749.477 C603.431,749.477 603.431,762.625 603.431,762.625 C603.431,775.774 608.431,775.774 608.431,775.774" style="stroke:#181818;stroke-width:0.5;" fill="none"/><text x="553.56" y="767.472" fill="#000" font-size="14" textLength="44.871">orders</text></g><!--entity T2--><g class="entity" data-qualified-name="K.T2" id="ent0009" data-source-line="19"><path d="M342.08,749.477 L389.91,749.477 C394.91,749.477 394.91,762.625 394.91,762.625 C394.91,762.625 394.91,775.774 389.91,775.774 L342.08,775.774 C337.08,775.774 337.08,762.625 337.08,762.625 C337.08,762.625 337.08,749.477 342.08,749.477" style="stroke:#181818;stroke-width:0.5;" fill="#F1F1F1"/><path d="M389.91,749.477 C384.91,749.477 384.91,762.625 384.91,762.625 C384.91,775.774 389.91,775.774 389.91,775.774" style="stroke:#181818;stroke-width:0.5;" fill="none"/><text x="342.08" y="767.472" fill="#000" font-size="14" textLength="37.83">users</text></g><!--entity D1--><g class="entity" data-qualified-name="K.D1" id="ent0010" data-source-line="20"><path d="M435.03,749.477 L508.973,749.477 C513.973,749.477 513.973,762.625 513.973,762.625 C513.973,762.625 513.973,775.774 508.973,775.774 L435.03,775.774 C430.03,775.774 430.03,762.625 430.03,762.625 C430.03,762.625 430.03,749.477 435.03,749.477" style="stroke:#181818;stroke-width:0.5;" fill="#F1F1F1"/><path d="M508.973,749.477 C503.973,749.477 503.973,762.625 503.973,762.625 C503.973,775.774 508.973,775.774 508.973,775.774" style="stroke:#181818;stroke-width:0.5;" fill="none"/><text x="435.03" y="767.472" fill="#000" font-size="14" textLength="63.943">users.dlq</text></g><!--entity C--><g class="entity" data-qualified-name="In.C" id="ent0012" data-source-line="24"><rect x="351.01" y="391.037" width="195.984" height="52.594" fill="#F1F1F1" style="stroke:#181818;stroke-width:0.5;" rx="2.5" ry="2.5"/><text x="361.01" y="414.032" fill="#000" font-size="14" textLength="175.984">пул consumer.Consumer</text><text x="416.197" y="430.329" fill="#000" font-size="14" textLength="65.611">на топик</text></g><!--entity P2--><g class="entity" data-qualified-name="In.P2" id="ent0013" data-source-line="25"><rect x="396.96" y="565.887" width="150.074" height="52.594" fill="#F1F1F1" style="stroke:#181818;stroke-width:0.5;" rx="2.5" ry="2.5"/><text x="406.96" y="588.882" fill="#000" font-size="14" textLength="130.074">producer.Producer</text><text x="457.197" y="605.179" fill="#000" font-size="14" textLength="29.6">DLQ</text></g><!--entity H--><g class="entity" data-qualified-name="Apply.H" id="ent0015" data-source-line="29"><rect x="51.44" y="574.037" width="75.125" height="36.297" fill="#F1F1F1" style="stroke:#181818;stroke-width:0.5;" rx="2.5" ry="2.5"/><text x="61.44" y="597.032" fill="#000" font-size="14" textLength="55.125">Handler</text></g><!--entity Read--><g class="entity" data-qualified-name="Apply.Read" id="ent0016" data-source-line="30"><path d="M39.27,741.837 C39.27,731.837 114.998,731.837 114.998,731.837 C114.998,731.837 190.725,731.837 190.725,741.837 L190.725,783.431 C190.725,793.431 114.998,793.431 114.998,793.431 C114.998,793.431 39.27,793.431 39.27,783.431 L39.27,741.837" style="stroke:#181818;stroke-width:0.5;" fill="#F1F1F1"/><path d="M39.27,741.837 C39.27,751.837 114.998,751.837 114.998,751.837 C114.998,751.837 190.725,751.837 190.725,741.837" style="stroke:#181818;stroke-width:0.5;" fill="none"/><text x="80.353" y="768.832" fill="#000" font-size="14" textLength="69.289">БД-копия</text><text x="49.27" y="785.129" fill="#000" font-size="14" textLength="131.455">чужих сущностей</text></g><g class="entity" data-qualified-name="GMN27" id="ent0028" data-source-line="46"><path d="M828.66,389.637 L828.66,445.035 L1123.346,445.035 L1123.346,399.637 L1113.346,389.637 L828.66,389.637" style="stroke:#181818;stroke-width:0.5;" fill="#FEFFDD"/><path d="M1113.346,389.637 L1113.346,399.637 L1123.346,399.637 L1113.346,389.637" style="stroke:#181818;stroke-width:1;" fill="#FEFFDD"/><text x="854.322" y="406.704" fill="#000" font-size="13" textLength="234.362">У Outbox и Inbox свои продюсеры:</text><text x="834.66" y="421.837" fill="#000" font-size="13" textLength="273.686">поток публикации не должен занимать</text><text x="857.359" y="436.969" fill="#000" font-size="13" textLength="228.287">буфер, из которого пишется DLQ</text></g><g class="entity" data-qualified-name="GMN30" id="ent0031" data-source-line="52"><path d="M825.22,572.047 L825.22,612.313 L1106.779,612.313 L1106.779,582.047 L1096.779,572.047 L825.22,572.047" style="stroke:#181818;stroke-width:0.5;" fill="#FEFFDD"/><path d="M1096.779,572.047 L1096.779,582.047 L1106.779,582.047 L1096.779,572.047" style="stroke:#181818;stroke-width:1;" fill="#FEFFDD"/><text x="831.22" y="589.114" fill="#000" font-size="13" textLength="260.559">Handler обязан быть идемпотентным:</text><text x="868.049" y="604.247" fill="#000" font-size="13" textLength="186.9">at-least-once в обе стороны</text></g><!--link Biz to DB--><g class="link" data-entity-1="ent0002" data-entity-2="ent0003" id="lnk17" data-source-line="33" data-link-type="dependency"><path d="M605.52,115.047 C607.5,137.977 610.559,173.435 612.969,201.295" style="stroke:#181818;stroke-width:1;" fill="none" id="Biz-to-DB"/><polygon points="613.4,206.277,616.609,196.966,612.969,201.295,608.639,197.655,613.4,206.277" fill="#181818" style="stroke:#181818;stroke-width:1;stroke-linejoin:miter;stroke-miterlimit:10;"/><text x="634.635" y="157.664" fill="#000" font-size="13" textLength="122.059">одна транзакция:</text><text x="611.72" y="172.797" fill="#000" font-size="13" textLength="167.889">UPDATE + INSERT outbox</text></g><!--link DB to OW--><g class="link" data-entity-1="ent0003" data-entity-2="ent0005" id="lnk18" data-source-line="34" data-link-type="dependency"><path d="M582.58,268.317 C566.24,286.707 552.35,310.757 564,332.187 C581.21,363.837 611.482,383.329 640.752,396.699" style="stroke:#181818;stroke-width:1;" fill="none" id="DB-to-OW"/><polygon points="645.3,398.777,638.776,391.399,640.752,396.699,635.452,398.676,645.3,398.777" fill="#181818" style="stroke:#181818;stroke-width:1;stroke-linejoin:miter;stroke-miterlimit:10;"/><text x="638.744" y="313.254" fill="#000" font-size="13" textLength="35.959">Fetch</text><text x="565" y="328.387" fill="#000" font-size="13" textLength="183.447">(FOR UPDATE SKIP LOCKED)</text></g><!--link OW to DB--><g class="link" data-entity-1="ent0005" data-entity-2="ent0003" id="lnk19" data-source-line="35" data-link-type="dependency"><path d="M714.43,398.797 C739.02,375.507 774.48,333.437 753,300.187 C739.05,278.597 720.219,266.293 696.589,257.083" style="stroke:#181818;stroke-width:1;" fill="none" id="OW-to-DB"/><polygon points="691.93,255.267,698.863,262.262,696.589,257.083,701.768,254.808,691.93,255.267" fill="#181818" style="stroke:#181818;stroke-width:1;stroke-linejoin:miter;stroke-miterlimit:10;"/><text x="760.61" y="320.754" fill="#000" font-size="13" textLength="145.26">MarkSent / MarkFailed</text></g><!--link OW to P1--><g class="link" data-entity-1="ent0005" data-entity-2="ent0006" id="lnk20" data-source-line="36" data-link-type="dependency"><path d="M694,435.857 C694,466.497 694,524.927 694,560.527" style="stroke:#181818;stroke-width:1;" fill="none" id="OW-to-P1"/><polygon points="694,565.527,698,556.527,694,560.527,690,556.527,694,565.527" fill="#181818" style="stroke:#181818;stroke-width:1;stroke-linejoin:miter;stroke-miterlimit:10;"/></g><!--link P1 to T1--><g class="link" data-entity-1="ent0006" data-entity-2="ent0008" id="lnk21" data-source-line="37" data-link-type="dependency"><path d="M676.84,618.767 C652.26,655.397 610.765,717.255 592.265,744.835" style="stroke:#181818;stroke-width:1;" fill="none" id="P1-to-T1"/><polygon points="589.48,748.987,597.815,743.741,592.265,744.835,591.172,739.284,589.48,748.987" fill="#181818" style="stroke:#181818;stroke-width:1;stroke-linejoin:miter;stroke-miterlimit:10;"/><text x="645.27" y="679.544" fill="#000" font-size="13" textLength="131.631">ProduceSyncResults</text><text x="661.847" y="694.677" fill="#000" font-size="13" textLength="98.478">key = entity_id</text></g><!--link T2 to C--><g class="link" data-entity-1="ent0009" data-entity-2="ent0012" id="lnk22" data-source-line="39" data-link-type="dependency"><path d="M354.92,749.097 C339.51,730.737 312.34,694.757 302,658.477 C284.52,597.167 271.74,571.157 302,515.037 C319.32,482.907 348.06,461.977 378.52,446.367" style="stroke:#181818;stroke-width:1;" fill="none" id="T2-to-C"/><polygon points="382.97,444.087,373.136,444.632,378.52,446.367,376.785,451.751,382.97,444.087" fill="#181818" style="stroke:#181818;stroke-width:1;stroke-linejoin:miter;stroke-miterlimit:10;"/><text x="303" y="596.754" fill="#000" font-size="13" textLength="75.518">PollRecords</text></g><!--link C to H--><g class="link" data-entity-1="ent0012" data-entity-2="ent0015" id="lnk23" data-source-line="40" data-link-type="dependency"><path d="M350.68,423.237 C264.92,429.567 149.19,443.777 116,475.037 C88.72,500.727 86.315,543.161 87.365,568.741" style="stroke:#181818;stroke-width:1;" fill="none" id="C-to-H"/><polygon points="87.57,573.737,91.198,564.58,87.365,568.741,83.204,564.909,87.57,573.737" fill="#181818" style="stroke:#181818;stroke-width:1;stroke-linejoin:miter;stroke-miterlimit:10;"/><text x="117" y="488.104" fill="#000" font-size="13" textLength="141.921">envelope.Envelope[T]</text><text x="121.009" y="503.237" fill="#000" font-size="13" textLength="133.904">(декод в ecst.Topic)</text></g><!--link H to Read--><g class="link" data-entity-1="ent0015" data-entity-2="ent0016" id="lnk24" data-source-line="41" data-link-type="dependency"><path d="M91.68,610.577 C96.1,639.157 104.167,691.445 109.607,726.675" style="stroke:#181818;stroke-width:1;" fill="none" id="H-to-Read"/><polygon points="110.37,731.617,112.95,722.112,109.607,726.675,105.043,723.333,110.37,731.617" fill="#181818" style="stroke:#181818;stroke-width:1;stroke-linejoin:miter;stroke-miterlimit:10;"/><text x="106.09" y="679.544" fill="#000" font-size="13" textLength="111.814">условный upsert</text><text x="127.897" y="694.677" fill="#000" font-size="13" textLength="68.199">по version</text></g><!--link C to P2--><g class="link" data-entity-1="ent0012" data-entity-2="ent0013" id="lnk25" data-source-line="42" data-link-type="dependency"><path d="M447.64,444.077 C447.1,461.847 447.17,485.977 450,507.037 C452.69,527.087 457.136,544.423 462.156,560.943" style="stroke:#181818;stroke-width:1;" fill="none" id="C-to-P2"/><polygon points="463.61,565.727,464.82,555.953,462.156,560.943,457.166,558.279,463.61,565.727" fill="#181818" style="stroke:#181818;stroke-width:1;stroke-linejoin:miter;stroke-miterlimit:10;"/><text x="451" y="495.604" fill="#000" font-size="13" textLength="151.988">запись не пристроена</text></g><!--link P2 to D1--><g class="link" data-entity-1="ent0013" data-entity-2="ent0010" id="lnk26" data-source-line="43" data-link-type="dependency"><path d="M472,618.767 C472,655.397 472,716.407 472,743.987" style="stroke:#181818;stroke-width:1;" fill="none" id="P2-to-D1"/><polygon points="472,748.987,476,739.987,472,743.987,468,739.987,472,748.987" fill="#181818" style="stroke:#181818;stroke-width:1;stroke-linejoin:miter;stroke-miterlimit:10;"/><text x="483.369" y="679.544" fill="#000" font-size="13" textLength="84.106">ProduceSync</text><text x="473" y="694.677" fill="#000" font-size="13" textLength="104.844">+ dlq_* headers</text></g><!--link Out to GMN27--><g class="link" data-entity-1="ent0004" data-entity-2="ent0028" id="lnk29" data-source-line="46" data-link-type="association"><path d="M801.134,417.337 C801.179,417.337 801.224,417.337 801.269,417.337 C801.629,417.337 801.988,417.337 802.348,417.337 C805.227,417.337 808.106,417.337 810.984,417.337 C816.74,417.337 822.495,417.337 828.25,417.337" style="stroke:#181818;stroke-width:1;stroke-dasharray:7,7;" fill="none" id="Out-GMN27"/></g><!--link Apply to GMN30--><g class="link" data-entity-1="ent0014" data-entity-2="ent0031" id="lnk32" data-source-line="52" data-link-type="association"><path d="M224.387,553.18 C224.881,551.678 225.767,526.753 226.313,525.258 C228.495,519.276 231.099,513.378 234.204,507.798 C240.414,496.638 248.63,486.754 259.5,480.037 C355.53,420.687 658.32,451.327 767.5,480.037 C835.06,497.807 903.82,544.377 940.01,571.597" style="stroke:#181818;stroke-width:1;stroke-dasharray:7,7;" fill="none" id="Apply-GMN30"/></g><?plantuml-src VLNRRjj647tdLmpyr5oaG7uqq02EPCE6qqYL5FWX2e8DkPO9qKk65pTAKI1sxd1G8qN-e3z0ErQh-2B_mkulv4jwPid8ifDK3zHeENlcdDapgzHF0qdIJT9AFrmWVQmd-bIVutccH_hCx9ezqcFY5REBrMCzTfnauAj8n6ABt70h2fLKQIST0YUMRYfKFv0pASccyCBVVDMd3H4aisyykI6o8EtAf-bYuFVL5d38nKF6ZXC9To3wakRqNpetRydiw95vhW_rsEo0vxyw1oV4vlqSYOJMOp-LzBj3z41_q6Ey1t-pKz4d8Fq92ySwVyY9T_ndIF94AXwBXE4_w8-Nm7NUKpSepDB7uTCADEVw021ZyrhdjbBZZlF733rkNRKZustVbVJb-KTgsfqs5M51gK1R3-E1Z2sBvZelHt7ePQwCgwqow2bzRbuK1PanYexDljtHgd5PDmWpZ-RMnCP0s19hji2JJ6RW4iQUZ1ExtgrTB6V9T7N-ochL2vuKgch_hsfLVHMrgiesCzCJE40bsHOqrCi06ivqJjOjvop3qg__G6_Zxg-5lFbBzRz_wEU8nx3dg30duf6bj1X5mR1WjIAK5vHDNldce2lMt-oR_PuoRo3W7yIlKCUyCE-0E46q2-pF5hSjXSUqu1d2frAvZTCd49deer8a6EK8sOx7nMajzDJzLcEnkqGtQFLUPwdTBStaOEzNcEOwO9Pbwcxsr4_BpJQLMpfhgoswswolBJMkEKYwLFON4GywF2EtRBWi_41wirdmIAis_TMjOK_PwSvGkMsPODgIdXh88VrC0FBJuIFVSvpk_7HJdNXJ60HjwS9EYLEdwRiLVYVLjWp2I5QNok11zo4qe24ZszmZqeVsFgbsmyXthpah5m3SJq2WrpjsBWznmUpfpvH5y6BAvjSJseOj_L3D5cxDq-MH9pP0wGS-CNnFh2DoftMXfN6b0JpNyFkZwxG98YZZE2h4hH7x_SsKmWsULrX6_rtEC5zyrlVimqDK61Sb8TByMLZJx2tmZkdjID_EB--oR8-GS0B3WMSXvioQEGVzzmnoWBwyPD2Rn1UOlOiPrLRyXCvOzM-HiGlD-uJHSQJoY3LSLM8d0g3bEB1Z3yn-KPKhxN5HBiF7Tbhoj_UzFP9JLYNIIY05_XX2XKi0fyeW4697f625t2c5_m00?></g></svg>